<svg width="109" height="42" viewBox="0 0 109 42" fill="none" xmlns="http://www.w3.org/2000/svg">
<rect y="0.5" width="34" height="41" rx="8" fill="#D68240"/>
<path d="M23.8504 8.57812C24.3717 8.57812 24.757 8.60079 25.0064 8.64613C25.2784 8.66879 25.573 8.77079 25.8904 8.95212C26.2304 9.13346 26.4684 9.43946 26.6044 9.87012C26.7404 10.3008 26.8084 10.8788 26.8084 11.6041C26.8084 12.3295 26.7404 12.9075 26.6044 13.3381C26.4684 13.7688 26.2304 14.0748 25.8904 14.2561C25.5504 14.4148 25.2444 14.5168 24.9724 14.5621C24.723 14.5848 24.3264 14.5961 23.7824 14.5961H13.3784V18.0301H20.0764C20.6204 18.0301 21.017 18.0528 21.2664 18.0981C21.5384 18.1208 21.8444 18.2228 22.1844 18.4041C22.7737 18.7441 23.0684 19.6395 23.0684 21.0901C23.0684 22.6768 22.6377 23.6175 21.7764 23.9121C21.4137 24.0255 20.8357 24.0821 20.0424 24.0821H13.3784V30.5081C13.3784 31.0521 13.3557 31.4488 13.3104 31.6981C13.2877 31.9475 13.2728 32.2276 13.0004 32.5001C12.9058 32.5947 11.7696 32.5001 11.3524 32.5001C9.76568 32.5001 8.83635 32.0695 8.56435 31.2081C8.42835 30.8455 8.36035 30.2675 8.36035 29.4741V12.5701C8.36035 11.4141 8.57568 10.6321 9.00635 10.2241C9.43702 9.79346 10.253 9.57812 11.4544 9.57812L23.8504 8.57812Z" fill="white"/>
<path d="M53.5003 8C56.263 8 52.4483 9.28434 55.9483 12.7201C57.983 14.7175 59.0003 17.2001 59.0003 20.1681C59.0003 23.1175 58.0297 25.6375 56.0883 27.7281C54.147 29.8001 51.7577 30.8361 48.9203 30.8361C46.083 30.8361 43.6657 29.8095 41.6683 27.7561C39.6897 25.7028 38.7003 23.2575 38.7003 20.4201C38.7003 18.8708 38.9803 17.4241 39.5403 16.0801C40.1003 14.7175 40.847 13.5788 41.7803 12.6641C42.7137 11.7495 43.787 11.0308 45.0003 10.5081C46.2137 9.98545 52.2123 8 53.5003 8ZM43.6563 20.2801C43.6563 21.9415 44.1883 23.2948 45.2523 24.3401C46.335 25.3668 47.539 25.8801 48.8643 25.8801C50.1897 25.8801 51.3843 25.3761 52.4483 24.3681C53.5123 23.3601 54.0443 22.0068 54.0443 20.3081C54.0443 18.6095 53.503 17.2468 52.4203 16.2201C51.3563 15.1935 50.1617 14.6801 48.8363 14.6801C47.511 14.6801 46.3163 15.2028 45.2523 16.2481C44.1883 17.2748 43.6563 18.6188 43.6563 20.2801Z" fill="#D68240"/>
<path d="M71.0233 9.72412C73.7859 9.72412 76.1846 10.7228 78.2193 12.7201C80.2539 14.7175 81.2713 17.2001 81.2713 20.1681C81.2713 23.1175 80.3006 25.6375 78.3593 27.7281C76.4179 29.8001 74.0286 30.8361 71.1913 30.8361C68.3539 30.8361 65.9366 29.8095 63.9393 27.7561C61.9606 25.7028 60.9713 23.2575 60.9713 20.4201C60.9713 18.8708 61.2513 17.4241 61.8113 16.0801C62.3713 14.7175 63.1179 13.5788 64.0513 12.6641C64.9846 11.7495 66.0579 11.0308 67.2713 10.5081C68.4846 9.98545 69.7353 9.72412 71.0233 9.72412ZM65.9273 20.2801C65.9273 21.9415 66.4593 23.2948 67.5233 24.3401C68.6059 25.3668 69.8099 25.8801 71.1353 25.8801C72.4606 25.8801 73.6553 25.3761 74.7193 24.3681C75.7833 23.3601 76.3153 22.0068 76.3153 20.3081C76.3153 18.6095 75.7739 17.2468 74.6913 16.2201C73.6273 15.1935 72.4326 14.6801 71.1073 14.6801C69.7819 14.6801 68.5873 15.2028 67.5233 16.2481C66.4593 17.2748 65.9273 18.6188 65.9273 20.2801Z" fill="#D68240"/>
<path d="M86.1542 9.94812L91.3342 9.97612C94.0409 9.97612 96.4209 10.9561 98.4742 12.9161C100.528 14.8575 101.554 17.2561 101.554 20.1121C101.554 22.9495 100.546 25.3855 98.5302 27.4201C96.5329 29.4548 94.1062 30.4721 91.2502 30.4721H86.1262C84.9875 30.4721 84.2782 30.2388 83.9982 29.7721C83.7742 29.3801 83.6622 28.7828 83.6622 27.9801V12.4121C83.6622 11.9641 83.6715 11.6375 83.6902 11.4321C83.7275 11.2268 83.8209 10.9841 83.9702 10.7041C84.2315 10.2001 84.9595 9.94812 86.1542 9.94812ZM91.3342 25.5161C92.6782 25.5161 93.8915 25.0215 94.9742 24.0321C96.0569 23.0241 96.5982 21.7641 96.5982 20.2521C96.5982 18.7401 96.0662 17.4801 95.0022 16.4721C93.9569 15.4455 92.7249 14.9321 91.3062 14.9321H88.6182V25.5161H91.3342Z" fill="#D68240"/>
<path d="M103.937 12.4401C103.937 12.0108 103.946 11.6935 103.965 11.4881C104.002 11.2641 104.096 11.0121 104.245 10.7321C104.506 10.2281 105.234 9.97612 106.429 9.97612C107.736 9.97612 108.51 10.3215 108.753 11.0121C108.846 11.3295 108.893 11.8148 108.893 12.4681V28.0361C108.893 28.4841 108.874 28.8108 108.837 29.0161C108.818 29.2215 108.734 29.4641 108.585 29.7441C108.324 30.2481 107.596 30.5001 106.401 30.5001C105.094 30.5001 104.329 30.1455 104.105 29.4361C103.993 29.1375 103.937 28.6615 103.937 28.0081V12.4401Z" fill="#D68240"/>
</svg>
